<svg viewBox="0 0 775 210" fill="none" xmlns="http://www.w3.org/2000/svg">
<g fill="currentColor">
<g fill-rule="evenodd" clip-rule="evenodd">
<path d="M100.042 56.3173C95.8628 49.456 90.139 44.0779 82.8479 40.183C75.5682 36.2881 67.2096 34.3293 57.8289 34.3293H0V172.983H32.3783V125.44H57.8175C67.221 125.44 75.5569 123.459 82.8366 119.496C90.1163 115.544 95.8515 110.098 100.031 103.158C104.199 96.2172 106.277 88.3935 106.277 79.6866C106.277 70.9797 104.187 63.1786 100.031 56.3173H100.042ZM71.9227 87.4084C70.5939 89.6616 68.7087 91.4052 66.267 92.662C63.8253 93.9074 60.9974 94.5415 57.8289 94.5415H32.401V65.0242H57.8289C61.0088 65.0242 63.8253 65.6582 66.267 66.9037C68.72 68.1605 70.6053 69.9154 71.9227 72.1572C73.2514 74.4104 73.9101 76.9126 73.9101 79.6866C73.9101 82.4606 73.2401 85.1666 71.9227 87.4084Z"/>
<path d="M194.497 73.9462C198.392 78.7242 201.106 85.1779 202.639 93.2734L172.612 103.905C172.033 101.074 170.988 98.8327 169.466 97.2249C167.149 94.7793 164.469 93.5564 161.028 93.5564C157.587 93.5564 154.509 94.7227 151.795 97.0211C149.069 99.3308 146.991 102.603 145.537 106.826C144.084 111.049 143.357 115.873 143.357 121.285V172.983H112.557V66.0206H139.972V84.442C142.221 80.0829 144.913 76.3918 148.024 73.3461C151.136 70.3117 154.736 67.968 158.847 66.3149C162.947 64.6619 167.32 63.8353 171.965 63.8353C181.504 63.8353 189.023 67.1981 194.519 73.9349L194.497 73.9462Z"/>
<path d="M423.496 91.3825C418.93 82.9361 412.695 76.2333 404.814 71.2741C396.932 66.3262 388.221 63.8466 378.693 63.8466C369.165 63.8466 360.874 65.9299 353.856 70.0852C349.79 72.5082 346.292 75.52 343.328 79.1091V66.0205H315.913V210.324H346.712V163.608C346.951 163.834 347.178 164.072 347.405 164.287C351.312 167.854 355.911 170.56 361.215 172.416C366.507 174.251 372.333 175.19 378.704 175.19C388.369 175.19 397.137 172.711 405.029 167.763C412.911 162.815 419.101 156.078 423.609 147.553C428.107 139.038 430.355 129.686 430.355 119.519C430.355 109.351 428.072 99.8516 423.507 91.3939L423.496 91.3825ZM395.683 132.879C393.366 136.898 390.22 140.103 386.245 142.48C382.282 144.847 377.909 146.047 373.128 146.047C368.097 146.047 363.6 144.892 359.625 142.582C355.65 140.272 352.504 137.113 350.187 133.083C347.871 129.052 346.712 124.466 346.712 119.315C346.712 114.435 347.837 109.985 350.085 105.943C352.345 101.912 355.457 98.742 359.421 96.4436C363.395 94.1339 367.904 92.979 372.924 92.979C377.943 92.979 382.259 94.1452 386.245 96.4436C390.209 98.7534 393.366 101.958 395.671 106.045C397.988 110.144 399.147 114.627 399.147 119.507C399.147 124.387 397.977 128.859 395.671 132.879H395.683Z"/>
<path d="M469.013 160.505C469.479 165.657 470.297 169.824 471.501 172.983H437.521V26.0074H468.321V142.073C468.321 149.206 468.548 155.342 469.013 160.494V160.505Z"/>
<path d="M555.359 66.0092H588.339L541.05 179.119C536.95 189.015 531.544 196.714 524.855 202.194C518.166 207.674 509.262 210.414 498.132 210.414C493.635 210.414 489.263 209.927 485.015 208.931C480.779 207.935 477.133 206.723 474.09 205.262L483.425 175.949C486.208 177.398 488.888 178.519 491.477 179.312C494.055 180.104 496.599 180.501 499.12 180.501C502.698 180.501 505.582 179.504 507.763 177.523C509.943 175.541 511.908 172.699 513.623 169.008L515.667 164.479L474.487 66.0205H507.467L531.317 128.961L555.359 66.0205V66.0092Z"/>
<path d="M307.622 114.763C307.622 105.252 305.305 96.6021 300.66 88.8124C296.015 81.0113 289.667 74.9085 281.592 70.4928C273.517 66.0545 264.511 63.8466 254.574 63.8466C244.637 63.8466 235.097 66.2696 226.761 71.0816C218.414 75.8936 211.85 82.5738 207.091 91.0881C202.321 99.6025 199.937 109.147 199.937 119.711C199.937 130.275 202.31 140.136 207.091 148.526C211.861 156.916 218.584 163.46 227.25 168.137C235.926 172.824 245.886 175.179 257.152 175.179C271.064 175.179 282.387 171.884 291.12 165.261C297.696 160.302 302.557 153.916 305.668 146.126L275.891 135.777C275.119 139.57 273.052 142.605 269.656 144.869C266.079 147.236 261.502 148.436 255.948 148.436C250.395 148.436 245.773 147.247 241.741 144.869C237.698 142.503 234.62 139.027 232.496 134.464C231.452 132.211 230.668 129.731 230.123 127.037H306.395C307.19 122.813 307.599 118.726 307.599 114.763H307.622ZM231.395 104.845C231.679 104.052 231.974 103.294 232.315 102.569C234.302 98.2778 237.141 94.983 240.855 92.6619C244.557 90.3522 249.066 89.1973 254.358 89.1973C258.072 89.1973 261.479 89.888 264.591 91.2806C267.714 92.6733 270.19 94.5188 272.041 96.8286C273.892 99.1383 274.96 101.822 275.221 104.856H231.384L231.395 104.845Z"/>
</g>
<path fill-rule="evenodd" clip-rule="evenodd" d="M753.752 52.8187L676.173 5.53666C651.188 -9.68055 619.117 8.24269 619.117 37.4317V170.412C619.117 196.952 634.755 210.652 654.845 210.652C673.686 210.652 689.12 196.103 690.471 177.67C708.892 175.745 724.088 160.234 723.247 139.219L757.056 118.613C769.015 111.321 775 99.0251 775 86.7177C775 74.4104 770.798 62.2389 753.752 52.796V52.8187ZM654.845 189.479C646.85 189.479 640.377 183.014 640.377 175.055C640.377 167.095 646.85 160.619 654.845 160.619C662.84 160.619 669.325 167.084 669.325 175.055C669.325 183.025 662.84 189.479 654.845 189.479ZM701.999 141.359C701.999 146.805 698.478 156.69 685.452 156.69C683.975 154.255 682.215 151.991 680.228 149.987C678.218 147.983 675.98 146.205 673.55 144.699C668.11 141.359 661.705 139.434 654.845 139.434C650.121 139.434 645.612 140.352 641.49 142.005C641.126 142.152 640.717 142.322 640.365 142.48V110.585C640.365 102.116 647.248 95.2548 655.742 95.2548H686.61C695.105 95.2548 701.987 102.116 701.987 110.585V141.359H701.999ZM745.972 100.565L723.247 114.412V110.574C723.247 90.4088 706.848 74.0594 686.622 74.0594H655.754C650.268 74.0594 645.056 75.2595 640.377 77.4334V37.443C640.377 24.7959 654.266 17.0175 665.1 23.6184L745.984 72.9158C756.352 79.2337 756.352 94.2471 745.984 100.565H745.972Z"/>
</g>
</svg>
