<svg xmlns="http://www.w3.org/2000/svg" viewBox="0 0 386 80" fill="none">
<g clip-path="url(#clip0)">
<g clip-path="url(#clip1)">
<path d="M303.771 64.1257H290.835V15.3917H302.954V21.4254C305.685 18.0619 308.15 14.6639 312.829 14.2228C316.378 13.8904 319.666 14.7213 322.867 16.6179C321.515 20.3883 320.176 24.1186 318.9 27.6712C317.033 27.0581 315.352 26.2674 313.589 25.9751C310.052 25.3849 307.355 26.9893 305.9 30.2325C304.247 33.9227 304.131 37.8707 304.061 41.8016C303.94 48.7865 303.905 55.7716 303.836 62.7564C303.824 63.1574 303.795 63.57 303.771 64.1257Z" fill="currentColor"/>
<path d="M282.16 56.7446C278.13 61.6609 272.012 64.1188 263.801 64.1188C255.59 64.1188 249.472 61.6609 245.442 56.7446C241.412 51.8281 239.394 45.9089 239.394 38.987C239.394 32.0651 241.412 26.2834 245.442 21.2926C249.472 16.3017 255.59 13.8091 263.801 13.8091C272.012 13.8091 278.13 16.3017 282.16 21.2926C286.19 26.2834 288.208 32.1797 288.208 38.987C288.208 45.7943 286.19 51.8281 282.16 56.7446ZM272.169 49.9257C274.123 47.3586 275.103 43.7143 275.103 38.987C275.103 34.2597 274.123 30.6211 272.169 28.0712C270.208 25.5214 267.408 24.2436 263.755 24.2436C260.102 24.2436 257.295 25.5214 255.323 28.0712C253.352 30.6211 252.366 34.2597 252.366 38.987C252.366 43.7143 253.352 47.3586 255.323 49.9257C257.295 52.4928 260.107 53.7707 263.755 53.7707C267.408 53.7765 270.214 52.4928 272.169 49.9257Z" fill="currentColor"/>
<path d="M30.1014 47.4563C30.3681 49.6508 30.9364 51.2094 31.8178 52.132C33.3719 53.7765 36.248 54.6018 40.4463 54.6018C42.9107 54.6018 44.8707 54.2408 46.3262 53.5184C47.7816 52.7966 48.5065 51.7137 48.5065 50.2697C48.5065 48.8257 47.9208 47.8287 46.7495 47.1067C45.5781 46.3847 41.2233 45.147 33.685 43.3822C28.2574 42.0528 24.4361 40.3968 22.2151 38.4027C19.9943 36.4373 18.8867 33.6124 18.8867 29.9165C18.8867 25.5559 20.6205 21.8142 24.0881 18.6798C27.5557 15.5455 32.4382 13.9812 38.7298 13.9812C45.0214 13.9812 49.5676 15.1558 53.331 17.5109C57.0944 19.866 59.2517 23.9286 59.8082 29.6988H47.3235C47.1496 28.1115 46.6915 26.8567 45.9608 25.9341C44.5866 24.2609 42.2381 23.4243 38.9328 23.4243C36.2074 23.4243 34.2706 23.8426 33.1109 24.6792C31.9512 25.5158 31.3771 26.4956 31.3771 27.6245C31.3771 29.0398 31.9918 30.0655 33.2211 30.6958C34.4504 31.3605 38.7995 32.5007 46.2566 34.1166C51.2319 35.2741 54.9606 37.0161 57.442 39.3539C59.8952 41.7204 61.1244 44.6772 61.1244 48.2298C61.1244 52.9053 59.3617 56.7219 55.8358 59.6843C52.3104 62.6408 46.8597 64.1194 39.4837 64.1194C32.1078 64.1194 26.4076 62.5548 22.824 59.4204C19.2404 56.2919 17.4486 52.2982 17.4486 47.4505H30.1014V47.4563Z" fill="currentColor"/>
<path d="M0 0H21.9945V9.00765H11.8294V69.0473H21.9945V78.0952H0V0Z" fill="currentColor"/>
<path d="M385.527 78.0952H363.533V69.0473H373.698V9.00765H363.533V0H385.527V78.0952Z" fill="currentColor"/>
<path d="M105.712 56.7446C101.682 61.6609 95.5642 64.1188 87.3531 64.1188C79.1424 64.1188 73.0244 61.6609 68.9944 56.7446C64.9644 51.8281 62.9464 45.9089 62.9464 38.987C62.9464 32.0651 64.9644 26.2834 68.9944 21.2926C73.0244 16.3017 79.1424 13.8091 87.3531 13.8091C95.5642 13.8091 101.682 16.3017 105.712 21.2926C109.742 26.2834 111.76 32.1797 111.76 38.987C111.754 45.9089 109.742 51.8281 105.712 56.7446ZM95.7207 49.9257C97.6746 47.3586 98.655 43.7143 98.655 38.987C98.655 34.2597 97.6746 30.6211 95.7207 28.0712C93.761 25.5214 90.9602 24.2436 87.3066 24.2436C83.6536 24.2436 80.8469 25.5214 78.8754 28.0712C76.9039 30.6211 75.9181 34.2597 75.9181 38.987C75.9181 43.7143 76.9039 47.3586 78.8754 49.9257C80.8469 52.4928 83.6594 53.7707 87.3066 53.7707C90.9602 53.7765 93.761 52.4928 95.7207 49.9257Z" fill="currentColor"/>
<path d="M354.266 16.2847C357.595 17.7573 360.349 20.0837 362.518 23.2639C364.472 26.0659 365.742 29.3206 366.322 33.0222C366.658 35.1882 366.797 38.3111 366.733 42.3909H331.952C332.144 47.1239 333.814 50.4416 336.945 52.3497C338.853 53.5358 341.149 54.1263 343.828 54.1263C346.676 54.1263 348.983 53.4039 350.764 51.9601C351.732 51.1808 352.59 50.0978 353.332 48.7111H366.078C365.742 51.5132 364.199 54.3553 361.451 57.2374C357.171 61.8271 351.181 64.1193 343.486 64.1193C337.131 64.1193 331.524 62.1828 326.664 58.3149C321.805 54.4413 319.375 48.1439 319.375 39.4227C319.375 31.2459 321.567 24.9772 325.957 20.6166C330.341 16.2561 336.035 14.0729 343.034 14.0729C347.191 14.0729 350.931 14.8121 354.266 16.2847ZM335.582 26.9426C333.82 28.7419 332.706 31.1772 332.254 34.2485H353.767C353.541 30.9708 352.434 28.4897 350.439 26.7936C348.45 25.0975 345.98 24.2495 343.034 24.2495C339.833 24.2495 337.351 25.1491 335.582 26.9426Z" fill="currentColor"/>
<path d="M128.224 64.1252H115.74V0H128.224V64.1252Z" fill="currentColor"/>
<path d="M145.849 11.3054H133.184V0H145.849V11.3054ZM133.19 16.9323H145.854V64.1252H133.19V16.9323Z" fill="currentColor"/>
<path d="M222.646 51.4388C221.417 52.9971 219.336 53.7765 216.407 53.7765C212.278 53.7765 209.466 51.817 207.976 47.8862C207.158 45.7832 206.746 43.0041 206.746 39.5489C206.746 35.9217 207.158 33.0167 207.976 30.8277C209.53 26.7021 212.412 24.6393 216.627 24.6393C219.585 24.6393 221.765 25.5905 223.174 27.4986C224.143 28.9139 224.74 30.5012 224.978 32.2602H237.77C237.068 25.5332 234.806 20.846 230.991 18.1872C227.175 15.5342 222.269 14.2048 216.28 14.2048C209.234 14.2048 203.708 16.4567 199.701 20.9606C198.002 22.8687 196.668 25.1034 195.694 27.6533V0H183.029V21.3445C181.627 19.1213 179.8 17.385 177.556 16.1301C175.306 14.8752 172.737 14.2449 169.844 14.2449C163.563 14.2449 158.548 16.5541 154.796 21.1726C151.044 25.791 149.165 32.1285 149.165 40.1792C149.165 47.1642 151.073 52.8884 154.883 57.3467C158.692 61.8045 163.389 64.0333 168.968 64.0333C172.354 64.0333 175.19 63.3975 177.468 62.1311C179.748 60.8589 181.777 58.8247 183.558 56.0286V64.1135H195.694V51.4216C196.558 53.6103 197.7 55.5991 199.133 57.3752C202.757 61.8789 208.416 64.131 216.105 64.131C223.794 64.131 229.599 61.4319 233.519 56.0344C235.972 52.688 237.346 49.1353 237.642 45.3821H224.891C224.624 47.8575 223.876 49.8802 222.646 51.4388ZM180.623 49.7427C178.785 52.3384 176.095 53.6393 172.563 53.6393C169.031 53.6393 166.393 52.3327 164.654 49.7198C162.914 47.1069 162.044 43.623 162.044 39.2624C162.044 35.2227 162.896 31.8363 164.607 29.1087C166.318 26.3812 168.997 25.0174 172.644 25.0174C175.039 25.0174 177.144 25.7681 178.953 27.2694C181.905 29.7505 183.378 33.8819 183.378 39.6521C183.383 43.7834 182.461 47.147 180.623 49.7427Z" fill="currentColor"/>
</g>
</g>
<defs>
<clipPath id="clip0"><rect width="385.542" height="80" fill="currentColor"/></clipPath>
<clipPath id="clip1"><rect width="385.542" height="78.0952" fill="currentColor"/></clipPath>
</defs>
</svg>
