<?xml version="1.0" encoding="UTF-8" standalone="no"?>
<!DOCTYPE svg PUBLIC "-//W3C//DTD SVG 1.1//EN" "http://www.w3.org/Graphics/SVG/1.1/DTD/svg11.dtd">
<svg width="100%" height="100%" viewBox="0 0 258 258" version="1.1" xmlns="http://www.w3.org/2000/svg" xmlns:xlink="http://www.w3.org/1999/xlink" xml:space="preserve" xmlns:serif="http://www.serif.com/" style="fill-rule:evenodd;clip-rule:evenodd;stroke-linejoin:round;stroke-miterlimit:2;">
    <g transform="matrix(1,0,0,1,-4396.3975,-2296.6075)">
        <g transform="matrix(8.333333,0,0,8.333333,0,0)">
            <g transform="matrix(0,1,1,0,543.0144,285.4231)">
                <path d="M5.617,-5.617C8.719,-5.617 11.234,-3.102 11.234,0C11.234,3.102 8.719,5.617 5.617,5.617C2.515,5.617 0,3.102 0,0C0,-3.102 2.515,-5.617 5.617,-5.617" style="fill:rgb(255,255,255);fill-rule:nonzero;"/>
            </g>
        </g>
        <g transform="matrix(8.333333,0,0,8.333333,0,0)">
            <g transform="matrix(1,0,0,1,538.8017,281.2102)">
                <path d="M0,19.66C0,18.132 -0.611,16.747 -1.601,15.735C-1.601,15.735 -4.016,13.445 -4.016,9.83C-4.016,6.215 -1.601,3.925 -1.601,3.925C-0.611,2.912 0,1.528 0,0C0,-3.102 -2.515,-5.617 -5.617,-5.617C-8.719,-5.617 -11.234,-3.102 -11.234,0C-11.234,1.528 -10.624,2.912 -9.634,3.925C-9.634,3.925 -7.218,6.215 -7.218,9.83C-7.218,13.445 -9.634,15.735 -9.634,15.735C-10.624,16.747 -11.234,18.132 -11.234,19.66C-11.234,22.762 -8.719,25.277 -5.617,25.277C-2.515,25.277 0,22.762 0,19.66" style="fill:rgb(255,255,255);fill-rule:nonzero;"/>
            </g>
        </g>
        <g transform="matrix(8.333333,0,0,8.333333,0,0)">
            <g transform="matrix(1,0,0,1,552.8447,306.487)">
                <path d="M0,-11.234C-1.528,-11.234 -2.913,-10.623 -3.925,-9.633C-3.925,-9.633 -6.215,-7.218 -9.83,-7.218C-13.445,-7.218 -15.735,-9.633 -15.735,-9.633C-16.748,-10.623 -18.132,-11.234 -19.66,-11.234C-22.762,-11.234 -25.277,-8.719 -25.277,-5.617C-25.277,-2.515 -22.762,0 -19.66,0C-18.132,0 -16.748,-0.61 -15.735,-1.6C-15.735,-1.6 -13.445,-4.016 -9.83,-4.016C-6.215,-4.016 -3.925,-1.6 -3.925,-1.6C-2.913,-0.61 -1.528,0 0,0C3.102,0 5.617,-2.515 5.617,-5.617C5.617,-8.719 3.102,-11.234 0,-11.234" style="fill:rgb(255,255,255);fill-rule:nonzero;"/>
            </g>
        </g>
        <g transform="matrix(8.333333,0,0,8.333333,0,0)">
            <g transform="matrix(1,0,0,1,552.8447,286.8269)">
                <path d="M0,-11.234C-1.528,-11.234 -2.913,-10.623 -3.925,-9.633C-3.925,-9.633 -6.215,-7.218 -9.83,-7.218C-13.445,-7.218 -15.735,-9.633 -15.735,-9.633C-16.748,-10.623 -18.132,-11.234 -19.66,-11.234C-22.762,-11.234 -25.277,-8.719 -25.277,-5.617C-25.277,-2.515 -22.762,0 -19.66,0C-18.132,0 -16.748,-0.61 -15.735,-1.6C-15.735,-1.6 -13.445,-4.016 -9.83,-4.016C-6.215,-4.016 -3.925,-1.6 -3.925,-1.6C-2.913,-0.61 -1.528,0 0,0C3.102,0 5.617,-2.515 5.617,-5.617C5.617,-8.719 3.102,-11.234 0,-11.234" style="fill:rgb(255,255,255);fill-rule:nonzero;"/>
            </g>
        </g>
    </g>
</svg>
