<?xml version="1.0" encoding="UTF-8" standalone="no"?>
<!DOCTYPE svg PUBLIC "-//W3C//DTD SVG 1.1//EN" "http://www.w3.org/Graphics/SVG/1.1/DTD/svg11.dtd">
<svg width="100%" height="100%" viewBox="0 0 422 258" version="1.1" xmlns="http://www.w3.org/2000/svg" xmlns:xlink="http://www.w3.org/1999/xlink" xml:space="preserve" xmlns:serif="http://www.serif.com/" style="fill-rule:evenodd;clip-rule:evenodd;stroke-linejoin:round;stroke-miterlimit:2;">
    <g transform="matrix(1,0,0,1,-4396.3975,-4126.809167)">
        <g transform="matrix(8.333333,0,0,8.333333,0,0)">
            <g transform="matrix(1,0,0,1,558.4609,500.8347)">
                <path d="M0,19.659C0,18.131 -0.611,16.747 -1.601,15.734C-1.601,15.734 -4.016,13.445 -4.016,9.829C-4.016,6.214 -1.601,3.925 -1.601,3.925C-0.611,2.912 0,1.527 0,-0.001C0,-3.103 -2.515,-5.617 -5.617,-5.617C-8.719,-5.617 -11.234,-3.103 -11.234,-0.001C-11.234,1.527 -10.623,2.912 -9.633,3.925C-9.633,3.925 -7.218,6.214 -7.218,9.829C-7.218,13.445 -9.633,15.734 -9.633,15.734C-10.623,16.747 -11.234,18.131 -11.234,19.659C-11.234,22.761 -8.719,25.276 -5.617,25.276C-2.515,25.276 0,22.761 0,19.659" style="fill:rgb(255,255,255);fill-rule:nonzero;"/>
            </g>
        </g>
        <g transform="matrix(8.333333,0,0,8.333333,0,0)">
            <g transform="matrix(1,0,0,1,572.5034,506.4511)">
                <path d="M0,-11.234C-1.528,-11.234 -2.913,-10.623 -3.925,-9.633C-3.925,-9.633 -6.214,-7.218 -9.83,-7.218C-13.445,-7.218 -15.734,-9.633 -15.734,-9.633C-16.747,-10.623 -18.132,-11.234 -19.66,-11.234C-22.762,-11.234 -25.276,-8.719 -25.276,-5.617C-25.276,-2.515 -22.762,0 -19.66,0C-18.132,0 -16.747,-0.611 -15.734,-1.601C-15.734,-1.601 -13.445,-4.016 -9.83,-4.016C-6.214,-4.016 -3.925,-1.601 -3.925,-1.601C-2.913,-0.611 -1.528,0 0,0C3.102,0 5.617,-2.515 5.617,-5.617C5.617,-8.719 3.102,-11.234 0,-11.234" style="fill:rgb(255,255,255);fill-rule:nonzero;"/>
            </g>
        </g>
        <g transform="matrix(8.333333,0,0,8.333333,0,0)">
            <g transform="matrix(1,0,0,1,552.8437,506.4511)">
                <path d="M0,-11.234C-1.528,-11.234 -2.913,-10.623 -3.925,-9.633C-3.925,-9.633 -6.214,-7.218 -9.83,-7.218C-13.445,-7.218 -15.734,-9.633 -15.734,-9.633C-16.747,-10.623 -18.131,-11.234 -19.659,-11.234C-22.762,-11.234 -25.276,-8.719 -25.276,-5.617C-25.276,-2.515 -22.762,0 -19.659,0C-18.131,0 -16.747,-0.611 -15.734,-1.601C-15.734,-1.601 -13.445,-4.016 -9.83,-4.016C-6.214,-4.016 -3.925,-1.601 -3.925,-1.601C-2.913,-0.611 -1.528,0 0,0C3.103,0 5.617,-2.515 5.617,-5.617C5.617,-8.719 3.103,-11.234 0,-11.234" style="fill:rgb(255,255,255);fill-rule:nonzero;"/>
            </g>
        </g>
    </g>
</svg>
