<?xml version="1.0" encoding="UTF-8" standalone="no"?>
<!DOCTYPE svg PUBLIC "-//W3C//DTD SVG 1.1//EN" "http://www.w3.org/Graphics/SVG/1.1/DTD/svg11.dtd">
<svg width="100%" height="100%" viewBox="0 0 210 326" version="1.1" xmlns="http://www.w3.org/2000/svg" xmlns:xlink="http://www.w3.org/1999/xlink" xml:space="preserve" xmlns:serif="http://www.serif.com/" style="fill-rule:evenodd;clip-rule:evenodd;stroke-linejoin:round;stroke-miterlimit:2;">
    <g transform="matrix(1,0,0,1,-7931.352083,-4092.88125)">
        <g transform="matrix(8.333333,0,0,8.333333,0,0)">
            <g transform="matrix(-0.707107,-0.707107,-0.707107,0.707107,951.762097,510.663246)">
                <path d="M-3.972,-9.588C-0.87,-9.589 1.645,-7.074 1.645,-3.971C1.644,-0.869 -0.87,1.645 -3.972,1.646C-7.074,1.645 -9.59,-0.87 -9.59,-3.971C-9.589,-7.073 -7.074,-9.588 -3.972,-9.588" style="fill:rgb(255,255,255);fill-rule:nonzero;"/>
            </g>
        </g>
        <g transform="matrix(8.333333,0,0,8.333333,0,0)">
            <g transform="matrix(1,0,0,1,953.4072,506.6925)">
                <path d="M0,-5.958C1.081,-4.878 2.492,-4.331 3.908,-4.314C3.908,-4.314 7.234,-4.404 9.791,-1.847C12.347,0.709 12.258,4.036 12.258,4.036C12.274,5.452 12.821,6.863 13.901,7.943C16.095,10.137 19.651,10.137 21.845,7.943C24.039,5.75 24.039,2.193 21.845,0C20.765,-1.081 19.354,-1.628 17.938,-1.644C17.938,-1.644 14.611,-1.555 12.055,-4.111C9.499,-6.668 9.587,-9.994 9.587,-9.994C9.571,-11.41 9.024,-12.821 7.944,-13.902C5.75,-16.095 2.194,-16.095 0,-13.902C-2.193,-11.708 -2.193,-8.152 0,-5.958" style="fill:rgb(255,255,255);fill-rule:nonzero;"/>
            </g>
        </g>
        <g transform="matrix(8.333333,0,0,8.333333,0,0)">
            <g transform="matrix(1,0,0,1,961.351,506.6912)">
                <path d="M0,21.846C1.081,20.766 1.627,19.355 1.644,17.939C1.644,17.939 1.555,14.612 4.111,12.055C6.667,9.499 9.994,9.588 9.994,9.588C11.41,9.572 12.821,9.025 13.901,7.945C16.095,5.751 16.095,2.195 13.901,0.001C11.708,-2.193 8.151,-2.193 5.958,0.001C4.877,1.081 4.33,2.492 4.314,3.908C4.314,3.908 4.403,7.235 1.847,9.791C-0.709,12.348 -4.036,12.259 -4.036,12.259C-5.452,12.275 -6.863,12.822 -7.944,13.902C-10.137,16.096 -10.137,19.652 -7.944,21.846C-5.75,24.039 -2.193,24.039 0,21.846" style="fill:rgb(255,255,255);fill-rule:nonzero;"/>
            </g>
        </g>
    </g>
</svg>
