<?xml version="1.0" encoding="UTF-8" standalone="no"?>
<!DOCTYPE svg PUBLIC "-//W3C//DTD SVG 1.1//EN" "http://www.w3.org/Graphics/SVG/1.1/DTD/svg11.dtd">
<svg width="100%" height="100%" viewBox="0 0 210 326" version="1.1" xmlns="http://www.w3.org/2000/svg" xmlns:xlink="http://www.w3.org/1999/xlink" xml:space="preserve" xmlns:serif="http://www.serif.com/" style="fill-rule:evenodd;clip-rule:evenodd;stroke-linejoin:round;stroke-miterlimit:2;">
    <g transform="matrix(1,0,0,1,-7931.349167,-2262.68)">
        <g transform="matrix(8.333333,0,0,8.333333,0,0)">
            <g transform="matrix(1,0,0,1,975.2524,295.0116)">
                <path d="M0,5.958C-1.081,4.878 -2.491,4.331 -3.907,4.314C-3.907,4.314 -7.234,4.404 -9.791,1.847C-12.347,-0.709 -12.258,-4.036 -12.258,-4.036C-12.274,-5.452 -12.821,-6.863 -13.901,-7.943C-16.095,-10.137 -19.651,-10.137 -21.845,-7.943C-24.039,-5.75 -24.039,-2.193 -21.845,0C-20.765,1.081 -19.354,1.628 -17.937,1.644C-17.937,1.644 -14.611,1.555 -12.055,4.111C-9.498,6.668 -9.587,9.994 -9.587,9.994C-9.571,11.41 -9.024,12.821 -7.944,13.902C-5.75,16.095 -2.194,16.095 0,13.902C2.193,11.708 2.193,8.152 0,5.958" style="fill:rgb(255,255,255);fill-rule:nonzero;"/>
            </g>
        </g>
        <g transform="matrix(8.333333,0,0,8.333333,0,0)">
            <g transform="matrix(1,0,0,1,967.3085,295.0121)">
                <path d="M0,-21.845C-1.08,-20.765 -1.627,-19.354 -1.644,-17.938C-1.644,-17.938 -1.554,-14.611 -4.111,-12.054C-6.667,-9.498 -9.994,-9.587 -9.994,-9.587C-11.41,-9.571 -12.821,-9.024 -13.901,-7.944C-16.095,-5.75 -16.095,-2.194 -13.901,-0C-11.708,2.194 -8.151,2.194 -5.958,-0C-4.877,-1.08 -4.33,-2.491 -4.314,-3.908C-4.314,-3.908 -4.403,-7.234 -1.847,-9.791C0.709,-12.347 4.037,-12.258 4.037,-12.258C5.453,-12.274 6.863,-12.821 7.944,-13.901C10.137,-16.095 10.137,-19.652 7.944,-21.845C5.75,-24.039 2.194,-24.039 0,-21.845" style="fill:rgb(255,255,255);fill-rule:nonzero;"/>
            </g>
        </g>
    </g>
</svg>
