<svg width="600" height="600" viewBox="0 0 600 600" fill="none" xmlns="http://www.w3.org/2000/svg">
<path d="M188.445 378.379C188.445 366.209 183.579 355.179 175.697 347.127C175.697 347.127 156.471 328.898 156.471 300.098C156.471 271.312 175.697 253.096 175.697 253.096C183.579 245.03 188.445 234.001 188.445 221.831C188.445 197.136 168.419 177.11 143.724 177.11C119.016 177.11 98.9904 197.136 98.9904 221.831C98.9904 234.001 103.856 245.03 111.738 253.096C111.738 253.096 130.977 271.312 130.977 300.098C130.977 328.898 111.738 347.127 111.738 347.127C103.856 355.179 98.9904 366.209 98.9904 378.379C98.9904 403.087 119.016 423.099 143.724 423.099C168.419 423.099 188.445 403.087 188.445 378.379Z" fill="currentColor"/>
<path d="M300.264 333.651C288.093 333.651 277.064 338.516 269.012 346.398C269.012 346.398 250.783 365.624 221.996 365.624C193.197 365.624 174.981 346.398 174.981 346.398C166.915 338.516 155.886 333.651 143.715 333.651C119.021 333.651 98.9949 353.677 98.9949 378.385C98.9949 403.079 119.021 423.105 143.715 423.105C155.886 423.105 166.915 418.24 174.981 410.358C174.981 410.358 193.197 391.132 221.996 391.132C250.783 391.132 269.012 410.358 269.012 410.358C277.064 418.24 288.093 423.105 300.264 423.105C324.958 423.105 344.997 403.079 344.997 378.385C344.997 353.677 324.958 333.651 300.264 333.651Z" fill="currentColor"/>
<path d="M378.534 255.379C353.839 255.379 333.8 275.405 333.8 300.099C333.8 324.807 353.839 344.833 378.534 344.833C403.242 344.833 423.267 324.807 423.267 300.099C423.267 275.405 403.242 255.379 378.534 255.379Z" fill="currentColor"/>
<path d="M300.262 266.559C312.433 266.559 323.462 261.694 331.514 253.812C331.514 253.812 349.743 234.586 378.53 234.586C407.329 234.586 425.545 253.812 425.545 253.812C433.611 261.694 444.64 266.559 456.81 266.559C481.505 266.559 501.531 246.533 501.531 221.839C501.531 197.131 481.505 177.105 456.81 177.105C444.64 177.105 433.611 181.971 425.545 189.852C425.545 189.852 407.329 209.091 378.53 209.091C349.743 209.091 331.514 189.852 331.514 189.852C323.462 181.971 312.433 177.105 300.262 177.105C275.555 177.105 255.529 197.131 255.529 221.839C255.529 246.533 275.555 266.559 300.262 266.559Z" fill="currentColor"/>
<path d="M344.992 378.379C344.992 366.209 340.127 355.179 332.245 347.127C332.245 347.127 313.019 328.898 313.019 300.098C313.019 271.312 332.245 253.096 332.245 253.096C340.127 245.03 344.992 234.001 344.992 221.831C344.992 197.136 324.966 177.11 300.258 177.11C275.564 177.11 255.538 197.136 255.538 221.831C255.538 234.001 260.403 245.03 268.285 253.096C268.285 253.096 287.511 271.312 287.511 300.098C287.511 328.898 268.285 347.127 268.285 347.127C260.403 355.179 255.538 366.209 255.538 378.379C255.538 403.087 275.564 423.099 300.258 423.099C324.966 423.099 344.992 403.087 344.992 378.379Z" fill="currentColor"/>
<path d="M501.535 378.379C501.535 366.209 496.669 355.179 488.788 347.127C488.788 347.127 469.562 328.898 469.562 300.098C469.562 271.312 488.788 253.096 488.788 253.096C496.669 245.03 501.535 234.001 501.535 221.831C501.535 197.136 481.509 177.11 456.801 177.11C432.107 177.11 412.081 197.136 412.081 221.831C412.081 234.001 416.946 245.03 424.828 253.096C424.828 253.096 444.054 271.312 444.054 300.098C444.054 328.898 424.828 347.127 424.828 347.127C416.946 355.179 412.081 366.209 412.081 378.379C412.081 403.087 432.107 423.099 456.801 423.099C481.509 423.099 501.535 403.087 501.535 378.379Z" fill="currentColor"/>
</svg>
