<?xml version="1.0" encoding="UTF-8" standalone="no"?>
<!DOCTYPE svg PUBLIC "-//W3C//DTD SVG 1.1//EN" "http://www.w3.org/Graphics/SVG/1.1/DTD/svg11.dtd">
<svg width="100%" height="100%" viewBox="0 0 1092 146" version="1.1" xmlns="http://www.w3.org/2000/svg" xmlns:xlink="http://www.w3.org/1999/xlink" xml:space="preserve" xmlns:serif="http://www.serif.com/" style="fill-rule:evenodd;clip-rule:evenodd;stroke-linejoin:round;stroke-miterlimit:2;">
    <g transform="matrix(1,0,0,1,-13375.669722,-2950.044444)">
        <g transform="matrix(5.555556,0,0,5.555556,11370.6375,0)">
            <g transform="matrix(1,0,0,1,410.5329,535.9683)">
                <path d="M0,12.702L0,15.73L-12.38,15.73L-12.38,-3.028L-8.977,-3.028L-8.977,12.702L0,12.702Z" style="fill:white;fill-rule:nonzero;"/>
            </g>
        </g>
        <g transform="matrix(5.555556,0,0,5.555556,11370.6375,0)">
            <g transform="matrix(1,0,0,1,422.5227,544.6515)">
                <path d="M0,-0.001C0,-2.949 -1.474,-4.61 -3.859,-4.61C-6.217,-4.61 -7.718,-2.922 -7.718,-0.001C-7.718,2.947 -6.217,4.608 -3.859,4.608C-1.474,4.608 0,2.92 0,-0.001M-11.041,0.08C-11.041,-4.503 -8.28,-7.45 -3.805,-7.45C0.643,-7.45 3.35,-4.61 3.35,-0.081C3.35,4.501 0.562,7.449 -3.913,7.449C-8.361,7.449 -11.041,4.635 -11.041,0.08" style="fill:white;fill-rule:nonzero;"/>
            </g>
        </g>
        <g transform="matrix(5.555556,0,0,5.555556,11370.6375,0)">
            <g transform="matrix(1,0,0,1,436.7629,551.4844)">
                <path d="M0,-9.353C0,-10.988 -0.992,-11.818 -2.787,-11.818C-4.556,-11.818 -5.547,-10.988 -5.547,-9.353C-5.547,-7.691 -4.556,-6.861 -2.787,-6.861C-0.992,-6.861 0,-7.691 0,-9.353M-5.279,-0.188C-6.056,0.267 -6.565,0.884 -6.565,1.688C-6.565,2.813 -5.681,3.402 -3.082,3.402C0.134,3.402 1.259,2.706 1.259,1.5C1.259,0.642 0.67,0.294 -0.697,0.187L-5.279,-0.188ZM4.288,-12.541C3.43,-12.541 2.572,-12.541 1.742,-12.515C2.626,-11.684 3.055,-10.532 3.055,-9.272C3.055,-6.405 0.884,-4.395 -2.787,-4.395C-3.698,-4.395 -4.529,-4.503 -5.252,-4.717C-5.52,-4.476 -5.681,-4.181 -5.681,-3.859C-5.681,-3.243 -5.279,-2.895 -4.046,-2.814L0.214,-2.466C2.653,-2.278 4.261,-1.18 4.261,1.152C4.261,3.992 1.474,5.734 -3.216,5.734C-7.45,5.734 -9.486,4.528 -9.486,2.223C-9.486,0.723 -8.629,-0.376 -7.316,-1.099C-8.066,-1.635 -8.521,-2.332 -8.521,-3.323C-8.521,-4.315 -8.093,-5.146 -7.208,-5.815C-8.146,-6.646 -8.629,-7.825 -8.629,-9.326C-8.629,-12.327 -6.458,-14.283 -2.787,-14.283C-2.251,-14.283 -1.769,-14.23 -1.287,-14.149C0.616,-14.766 2.545,-15.087 4.288,-15.087L4.288,-12.541Z" style="fill:white;fill-rule:nonzero;"/>
            </g>
        </g>
        <g transform="matrix(5.555556,0,0,5.555556,11370.6375,0)">
            <g transform="matrix(1,0,0,1,449.3254,544.597)">
                <path d="M0,0.107C0,-4.288 2.787,-7.396 7.53,-7.396C8.87,-7.396 10.049,-7.182 10.96,-6.779L10.96,-3.912C10.103,-4.314 9.057,-4.555 7.717,-4.555C4.904,-4.555 3.323,-2.787 3.323,0.054C3.323,2.867 4.743,4.663 7.557,4.663C8.816,4.663 9.968,4.395 11.014,3.886L11.014,6.78C10.103,7.182 8.736,7.503 7.182,7.503C2.465,7.503 0,4.636 0,0.107" style="fill:white;fill-rule:nonzero;"/>
            </g>
        </g>
        <g transform="matrix(5.555556,0,0,5.555556,11370.6375,0)">
            <g transform="matrix(1,0,0,1,470.8537,541.1135)">
                <path d="M0,7.101L0,5.145C-0.964,4.85 -2.036,4.663 -2.974,4.663C-4.689,4.663 -5.681,5.252 -5.681,6.592C-5.681,7.986 -4.716,8.468 -3.376,8.468C-2.01,8.468 -0.884,8.012 0,7.101M3.323,2.037L3.323,10.585L0.509,10.585L0.322,9.406C-0.804,10.424 -2.331,11.013 -4.341,11.013C-7.289,11.013 -9.003,9.406 -9.003,6.753C-9.003,4.019 -6.994,2.358 -3.698,2.358C-2.224,2.358 -1.152,2.519 0,2.894L0,1.795C0,-0.161 -0.991,-1.018 -3.35,-1.018C-5.091,-1.018 -6.565,-0.697 -7.771,-0.161L-7.771,-3.055C-6.458,-3.564 -4.716,-3.912 -2.894,-3.912C1.581,-3.912 3.323,-2.063 3.323,2.037" style="fill:white;fill-rule:nonzero;"/>
            </g>
        </g>
        <g transform="matrix(5.555556,0,0,5.555556,11370.6375,0)">
            <g transform="matrix(1,0,0,1,0,476.864)">
                <rect x="477.51" y="54.736" width="3.323" height="20.098" style="fill:white;"/>
            </g>
        </g>
        <g transform="matrix(5.555556,0,0,5.555556,11370.6375,0)">
            <g transform="matrix(1,0,0,1,503.5949,551.6985)">
                <path d="M0,-18.758L0,0L-3.189,0L-3.189,-10.505L-3.135,-13.613C-3.538,-12.89 -3.939,-12.22 -4.341,-11.577L-8.415,-5.172L-10.531,-5.172L-14.658,-11.577C-15.006,-12.14 -15.382,-12.756 -15.73,-13.372L-15.703,-10.505L-15.703,0L-18.892,0L-18.892,-18.758L-15.784,-18.758L-9.406,-8.843L-3.082,-18.758L0,-18.758Z" style="fill:rgb(111,42,228);fill-rule:nonzero;"/>
            </g>
        </g>
        <g transform="matrix(5.555556,0,0,5.555556,11370.6375,0)">
            <g transform="matrix(1,0,0,1,0,476.272)">
                <path d="M507.411,61.358L510.734,61.358L510.734,75.426L507.411,75.426L507.411,61.358ZM506.902,56.853C506.902,55.513 507.813,54.736 509.072,54.736C510.359,54.736 511.27,55.513 511.27,56.853C511.27,58.192 510.359,58.943 509.072,58.943C507.813,58.943 506.902,58.192 506.902,56.853" style="fill:rgb(111,42,228);fill-rule:nonzero;"/>
            </g>
        </g>
        <g transform="matrix(5.555556,0,0,5.555556,11370.6375,0)">
            <g transform="matrix(1,0,0,1,527.2512,545.8558)">
                <path d="M0,-2.813L0,5.842L-3.323,5.842L-3.323,-2.545C-3.323,-4.796 -4.341,-5.814 -6.217,-5.814C-7.45,-5.814 -8.709,-5.278 -9.7,-4.18L-9.7,5.842L-13.023,5.842L-13.023,-8.226L-10.209,-8.226L-9.968,-6.913C-8.709,-8.092 -7.154,-8.655 -5.413,-8.655C-1.715,-8.655 0,-6.618 0,-2.813" style="fill:rgb(111,42,228);fill-rule:nonzero;"/>
            </g>
        </g>
        <g transform="matrix(5.555556,0,0,5.555556,11370.6375,0)">
            <g transform="matrix(1,0,0,1,539.9373,536.1296)">
                <path d="M0,11.442L0,4.341C-0.857,4.073 -1.822,3.912 -2.894,3.912C-5.359,3.912 -6.806,5.493 -6.806,8.548C-6.806,11.629 -5.681,13.13 -3.51,13.13C-2.09,13.13 -0.938,12.567 0,11.442M3.296,-4.529L3.296,15.568L0.482,15.568L0.295,14.148C-0.831,15.354 -2.599,15.971 -4.261,15.971C-7.958,15.971 -10.156,13.639 -10.156,8.682C-10.156,3.858 -7.262,1.071 -3.081,1.071C-1.849,1.071 -0.911,1.179 0,1.473L0,-4.529L3.296,-4.529Z" style="fill:rgb(111,42,228);fill-rule:nonzero;"/>
            </g>
        </g>
        <g transform="matrix(5.555556,0,0,5.555556,11370.6375,0)">
            <g transform="matrix(1,0,0,1,546.0315,538.0857)">
                <path d="M0,13.13L0,10.182C1.527,10.933 3.323,11.335 5.038,11.335C7.208,11.335 8.119,10.826 8.119,9.673C8.119,8.628 7.449,8.226 4.796,7.797C1.554,7.235 0,6.056 0,3.537C0,0.723 2.09,-0.885 5.896,-0.885C7.852,-0.885 9.272,-0.67 10.585,-0.188L10.585,2.626C8.923,2.036 7.557,1.822 5.976,1.822C4.046,1.822 3.215,2.277 3.215,3.269C3.215,4.207 3.859,4.582 6.726,5.064C9.995,5.6 11.389,6.833 11.389,9.486C11.389,12.407 9.191,14.015 5.199,14.015C3.215,14.015 1.286,13.693 0,13.13" style="fill:rgb(111,42,228);fill-rule:nonzero;"/>
            </g>
        </g>
        <g transform="matrix(5.555556,0,0,5.555556,11370.6375,0)">
            <g transform="matrix(1,0,0,1,0,476.272)">
                <path d="M443.365,61.358L446.688,61.358L446.688,75.426L443.365,75.426L443.365,61.358ZM442.857,56.853C442.857,55.513 443.767,54.736 445.027,54.736C446.313,54.736 447.224,55.513 447.224,56.853C447.224,58.192 446.313,58.943 445.027,58.943C443.767,58.943 442.857,58.192 442.857,56.853" style="fill:white;fill-rule:nonzero;"/>
            </g>
        </g>
        <g transform="matrix(5.555556,0,0,5.555556,11370.6375,0)">
            <g transform="matrix(1,0,0,1,367.7268,536.3507)">
                <path d="M0,11.937C0,11.009 -0.371,10.168 -0.972,9.554C-0.972,9.554 -2.438,8.164 -2.438,5.968C-2.438,3.773 -0.972,2.384 -0.972,2.384C-0.371,1.769 0,0.928 0,-0C0,-1.883 -1.527,-3.41 -3.41,-3.41C-5.294,-3.41 -6.821,-1.883 -6.821,-0C-6.821,0.928 -6.45,1.769 -5.849,2.384C-5.849,2.384 -4.382,3.773 -4.382,5.968C-4.382,8.164 -5.849,9.554 -5.849,9.554C-6.45,10.168 -6.821,11.009 -6.821,11.937C-6.821,13.821 -5.294,15.347 -3.41,15.347C-1.527,15.347 0,13.821 0,11.937" style="fill:white;fill-rule:nonzero;"/>
            </g>
        </g>
        <g transform="matrix(5.555556,0,0,5.555556,11370.6375,0)">
            <g transform="matrix(1,0,0,1,376.2531,551.6981)">
                <path d="M0,-6.821C-0.928,-6.821 -1.769,-6.45 -2.383,-5.849C-2.383,-5.849 -3.773,-4.383 -5.968,-4.383C-8.164,-4.383 -9.553,-5.849 -9.553,-5.849C-10.168,-6.45 -11.009,-6.821 -11.937,-6.821C-13.82,-6.821 -15.347,-5.294 -15.347,-3.41C-15.347,-1.527 -13.82,0 -11.937,0C-11.009,0 -10.168,-0.371 -9.553,-0.972C-9.553,-0.972 -8.164,-2.438 -5.968,-2.438C-3.773,-2.438 -2.383,-0.972 -2.383,-0.972C-1.769,-0.371 -0.928,0 0,0C1.883,0 3.411,-1.527 3.411,-3.41C3.411,-5.294 1.883,-6.821 0,-6.821" style="fill:white;fill-rule:nonzero;"/>
            </g>
        </g>
        <g transform="matrix(5.555556,0,0,5.555556,11370.6375,0)">
            <g transform="matrix(-1,0,0,1,382.2214,545.7298)">
                <path d="M0,-6.821C1.883,-6.821 3.411,-5.294 3.411,-3.411C3.411,-1.527 1.883,0 0,0C-1.884,0 -3.411,-1.527 -3.411,-3.411C-3.411,-5.294 -1.884,-6.821 0,-6.821" style="fill:rgb(111,42,228);fill-rule:nonzero;"/>
            </g>
        </g>
        <g transform="matrix(5.555556,0,0,5.555556,11370.6375,0)">
            <g transform="matrix(1,0,0,1,376.2531,532.9403)">
                <path d="M0,6.821C0.928,6.821 1.769,6.45 2.383,5.849C2.383,5.849 3.773,4.383 5.968,4.383C8.164,4.383 9.553,5.849 9.553,5.849C10.168,6.45 11.009,6.821 11.937,6.821C13.82,6.821 15.347,5.294 15.347,3.411C15.347,1.527 13.82,0 11.937,0C11.009,0 10.168,0.371 9.553,0.972C9.553,0.972 8.164,2.439 5.968,2.439C3.773,2.439 2.383,0.972 2.383,0.972C1.769,0.371 0.928,0 0,0C-1.884,0 -3.411,1.527 -3.411,3.411C-3.411,5.294 -1.884,6.821 0,6.821" style="fill:white;fill-rule:nonzero;"/>
            </g>
        </g>
        <g transform="matrix(5.555556,0,0,5.555556,11370.6375,0)">
            <g transform="matrix(1,0,0,1,379.6638,536.3507)">
                <path d="M0,11.937C0,11.009 -0.371,10.168 -0.972,9.554C-0.972,9.554 -2.438,8.164 -2.438,5.968C-2.438,3.773 -0.972,2.384 -0.972,2.384C-0.371,1.769 0,0.928 0,-0C0,-1.883 -1.527,-3.41 -3.411,-3.41C-5.294,-3.41 -6.821,-1.883 -6.821,-0C-6.821,0.928 -6.45,1.769 -5.849,2.384C-5.849,2.384 -4.383,3.773 -4.383,5.968C-4.383,8.164 -5.849,9.554 -5.849,9.554C-6.45,10.168 -6.821,11.009 -6.821,11.937C-6.821,13.821 -5.294,15.347 -3.411,15.347C-1.527,15.347 0,13.821 0,11.937" style="fill:white;fill-rule:nonzero;"/>
            </g>
        </g>
        <g transform="matrix(5.555556,0,0,5.555556,11370.6375,0)">
            <g transform="matrix(1,0,0,1,391.6003,536.3507)">
                <path d="M0,11.937C0,11.009 -0.371,10.168 -0.972,9.554C-0.972,9.554 -2.438,8.164 -2.438,5.968C-2.438,3.773 -0.972,2.384 -0.972,2.384C-0.371,1.769 0,0.928 0,-0C0,-1.883 -1.527,-3.41 -3.411,-3.41C-5.294,-3.41 -6.821,-1.883 -6.821,-0C-6.821,0.928 -6.45,1.769 -5.849,2.384C-5.849,2.384 -4.383,3.773 -4.383,5.968C-4.383,8.164 -5.849,9.554 -5.849,9.554C-6.45,10.168 -6.821,11.009 -6.821,11.937C-6.821,13.821 -5.294,15.347 -3.411,15.347C-1.527,15.347 0,13.821 0,11.937" style="fill:white;fill-rule:nonzero;"/>
            </g>
        </g>
    </g>
</svg>
